<svg xmlns="http://www.w3.org/2000/svg" version="1.1" xmlns:xlink="http://www.w3.org/1999/xlink" width="512" height="512" x="0" y="0" viewBox="0 0 512 512" style="enable-background:new 0 0 512 512" xml:space="preserve" class=""><g><path d="M507.62 290.14c-1.94-4.91-3.88-9.82-5.88-14.71l-5.89-14.55c-3.9-9.71-7.98-19.35-11.96-29.03a11.39 11.39 0 0 0-4.2-5.35c-8.85-6-22.42-15.55-31.25-21.36-7.46-5.16-17.39-11.62-25.95-17.3-1.71-5.63-3.43-11.24-5.15-16.82a3729.98 3729.98 0 0 0-14.59-46.08c-3.19-9.64-17.04-9.2-19.57.71-8.8 36.71-17.16 73.52-23.83 110.69-9.3 10.99-18.48 22.09-27.44 33.37-20.96-4.97-41.97-9.62-62.92-13.79 7.81-14.45 15.48-28.73 22.84-42.52l15.06-28.28c2.13-4.03 1.74-9.14-1.4-12.81-23.22-27.14-51.85-60.62-75.26-87.35-8.39-9.64-16.75-19.31-25.2-28.9-1.35-1.57-3.11-2.79-5.19-3.54-36.72-13.12-80.55-28.57-117.41-41.31-4.93-1.84-10.67-.11-13.69 4.48-13.7 20.75-32.28 49.27-45.8 70.13L7.79 109.29c-2.15 3.06-2.42 7.22-.3 10.6 6.93 11.18 21.14 33.67 28.14 44.79 7.16 11.36 21.48 33.71 28.71 45.03a6.56 6.56 0 0 0 6.87 2.87l24.77-5.25c16.51-3.54 33-7.17 49.48-10.85 4.76-1.09 9.52-2.17 14.27-3.25-3.31 13.58-6.56 27.15-9.73 40.65-13.29 56.47-26.15 114.35-38.14 171.16-.7 3.4.02 7.14 2.3 10.1l15.69 20.58c7.83 10.25 23.74 30.74 31.6 40.98l15.89 20.42c2.2 2.93 5.69 4.8 9.62 4.75 47.91-.56 100.81-1.34 148.42-2.89 12.72-.36 37.45-1.29 50.18-1.75 8.03-.38 9.75-11.38 2.39-14.28-21.85-8.52-45.72-17.6-67.85-25.26a2.42 2.42 0 0 0-2.87 1.08c-.67 1.16-.28 2.64.88 3.32 5.23 3.04 10.53 5.93 15.79 8.9l15.9 8.66c.87.47 1.77.96 2.69 1.46-41.82-1.38-85.64-2.38-128.31-3 11.42-1.98 22.78-4.28 34.13-6.72 11.17-2.39 23.59-5.41 34.68-8.2l6.89-1.8c6.23-1.64 10.08-7.95 8.62-14.27l-.11-.49-1.56-6.74c-2.47-10.41-5.74-23.1-8.47-33.52-.8-2.95-1.61-5.91-2.44-8.89 7.61-3.29 15.19-6.65 22.75-10.07 4.91 2.29 9.87 4.34 14.9 6.35 19.19 7.52 38.95 13.62 58.86 18.77 8.9 2.29 17.85 4.39 26.83 6.33 3.94.82 8.2-.31 11.26-3.36a619.53 619.53 0 0 0 20.32-21.31c5.38-4.92 4.82-13.83-1.43-17.74-5-3.18-10.05-6.28-15.16-9.3-11.33-6.65-22.79-13.03-34.68-18.61C410 343.3 420.4 338 430.76 332.69l18.2-9.49c.82-.24 1.6-.56 2.32-.95 16.26-5.13 32.48-10.4 48.66-15.76 6.77-2.21 10.32-9.76 7.68-16.35zm-134.16-72.95c6.36-17.27 12.45-34.64 18.33-52.07 2.24 8.65 4.53 17.32 6.85 25.99-8.07 9.08-16.12 18.19-24.05 27.4-.95 1.1-1.9 2.21-2.85 3.31.57-1.54 1.15-3.08 1.72-4.63zm-20.12 42.2c17.32-15.3 34.3-30.96 51.09-46.82 5.2 19.02 10.52 37.96 15.93 56.62 2.11 7.31 4.7 16.19 7.29 24.97-1.55-.42-2.53-.69-2.53-.69-28.27-7.57-56.94-15.04-85.72-21.96 4.69-4.02 9.34-8.04 13.94-12.12zM179.59 114.28l-12.95-5.27 19.54-19.54c-2.27 8.52-4.52 17.07-6.59 24.81zm-73.64-69.35L77.97 72.91l-6.93-2.82L98.83 42.3c2.36.87 4.74 1.75 7.12 2.63zm5.16 1.9c2.43.9 4.82 1.77 7.13 2.62L89.92 77.77l-6.93-2.82zm12.3 4.52c2.58.94 4.98 1.82 7.14 2.6l-28.69 28.69-6.93-2.82zm12.34 4.48c2.17.79 4.58 1.67 7.15 2.6l-29.08 29.08-6.93-2.82zm12.33 4.49c2.31.84 4.71 1.71 7.14 2.6l-29.45 29.45-6.93-2.82zm12.33 4.48c2.39.87 4.78 1.74 7.15 2.6l-29.84 29.84-6.93-2.82zm12.33 4.48c2.47.89 4.87 1.76 7.16 2.59l-30.23 30.23-6.93-2.82zm12.36 4.47c1.14.41 2.24.8 3.28 1.18.44.51.88 1.01 1.33 1.52-.3 1.11-.61 2.23-.92 3.36l-27.17 27.17-6.93-2.82zM82.94 36.42c3.32 1.23 6.95 2.57 10.73 3.97L66.02 68.04l-3.95-1.61c7.14-10.22 14.18-20.34 20.87-30.01zm36.1 155.82c-13.13 1.65-30.95 4.06-45.24 6.01-14.45-26.31-31.24-56.53-46.09-82.84 10-14.17 20.77-29.51 31.43-44.77l119.17 48.52c-5.8 22.45-11.51 45.15-17.05 67.83-14.09 1.65-28.16 3.43-42.22 5.25zm69.47-64.2 41.89 51.18c5.11 6.24 6.19 14.98 2.76 22.28l-31.01 65.98a22.9 22.9 0 0 0-.17 19.11l8.2 18.3c.42.93 1.33 1.48 2.28 1.48a2.499 2.499 0 0 0 2.28-3.52l-8.2-18.3a17.883 17.883 0 0 1 .13-14.94l31.01-65.98c4.24-9.03 2.9-19.85-3.42-27.57l-44.7-54.62a3924.7 3924.7 0 0 0 5.84-38.46c28.32 32.4 58.55 66.71 87.14 98.69-4.23 8.49-10.69 21.44-10.69 21.44-22.87 46-48.05 97.65-70.1 144.06-8.73 18.44-17.44 36.88-25.98 55.41-11.53.51-25.76 1.15-38.38 1.82 2.35-11.44 5.79-28.2 7.55-37.24 15.79-79.35 30.88-159.12 43.57-239.12zm3.15 347.82c-15.63-20.74-33.2-43.92-49.27-64.85 12.55.64 26.04 1.24 36.74 1.71 1.72.07 3.43-.79 4.34-2.39 10.72-18.67 21.23-37.46 31.72-56.24 4.11-7.37 8.28-14.9 12.49-22.53.62.34 1.23.68 1.85 1.02 2.98 1.62 9.11 4.86 12.12 6.4 6.47 3.3 12.98 6.5 19.54 9.61 5.23 30.28 12.09 60.99 19.88 90.67.16.63.36 1.38.57 2.2-5.2 1.67-11.05 3.56-15.61 5.12-25.21 8.58-50.26 17.81-74.37 29.28zm86.64-135.77c-.77-2.94-2.52-5.5-5.71-6.36-4.39-1.2-8.76-2.43-13.18-3.56-8.98-2.33-18.16-4.59-27.36-6.52 11.12-20.19 22.46-40.96 33.57-61.49 27.37 10.88 55.08 20.77 82.89 30.4 19.8 6.83 46.67 15.69 67.24 22.28-41.18 24.05-82.28 48.78-121.86 75.43-4.78-16.87-10.01-33.9-15.59-50.18zm117.5 19.83c8.43 8.43 17.29 16.45 26.37 24.15.9.77 1.82 1.52 2.73 2.28-2.36 2.19-4.7 4.39-7.02 6.61-28-6.07-56.41-10.59-85.07-12.06 19.06-8.83 37.97-18.02 56.77-27.39 2.04 2.19 4.12 4.31 6.22 6.41zm57.88-63.95c-6.76-24.65-13.85-49.66-21.14-74.48 10.11 7.64 20.28 15.24 30.1 22.5 5.48 14.18 11.17 28.79 16.88 43.07-4.24 1.43-8.48 2.87-12.7 4.36-4.38 1.52-8.76 3.03-13.14 4.55z" fill="#0061ff" opacity="1" data-original="#000000" class=""></path></g></svg>
